<svg width="146" height="41" viewBox="0 0 146 41" fill="none" xmlns="http://www.w3.org/2000/svg">
<path fill-rule="evenodd" clip-rule="evenodd" d="M140.352 13.9795C140.352 14.9087 140.356 17.2994 140.356 17.2994C140.356 17.2994 135.91 17.2944 134.1 17.2961C128.853 17.2999 114.856 17.3038 114.856 17.3065C114.856 17.6154 114.863 22.3707 114.863 22.3707C114.863 22.3707 120.253 22.3636 122.487 22.3636C127.327 22.3636 132.172 22.3636 137.012 22.3636C138.133 22.3636 139.222 22.3939 140.334 22.2505C142.079 22.0288 143.686 20.7803 144.694 19.4319C146.827 16.5973 146.314 12.132 143.401 9.98073C141.949 8.90756 140.382 8.41399 138.568 8.41399C137.273 8.41399 135.981 8.41399 134.687 8.41399C129.665 8.41399 117.695 8.41288 117.695 8.41288L117.693 5.20881L144.132 5.19337C144.132 5.19337 144.13 0.0078454 144.125 0.0078454C142.979 0.0078454 141.843 0.0078454 140.699 0.0078454C135.524 0.0078454 130.346 0.0078454 125.166 0.0078454C123.465 0.0078454 121.761 0.0078454 120.063 0.0078454C118.806 0.0078454 117.47 0.00784507 116.309 0.559872C114.626 1.35896 113.393 2.53305 112.582 4.19906C111.803 5.77959 111.841 7.73291 112.407 9.36583C112.98 10.9888 114.263 12.4585 115.836 13.2047C117.123 13.8179 118.424 13.9795 119.841 13.9795C124.399 13.9795 128.953 13.9795 133.513 13.9795C135.795 13.9795 138.069 13.9795 140.352 13.9795ZM100.207 11.3407L93.0111 11.3462L96.6735 5.168L100.207 11.3407ZM101.601 2.9792C103.436 6.16121 112.797 22.368 112.797 22.368L106.332 22.358L103.05 16.7766L90.1043 16.7733L86.8225 22.368H80.3256C80.3256 22.368 83.9869 16.0161 85.8279 12.8456C87.7299 9.5605 89.6347 6.27206 91.5412 2.98747C92.3657 1.56135 93.7505 0.421452 95.4135 0.113728C97.1834 -0.213297 98.9175 0.230089 100.297 1.37606C100.825 1.81724 101.256 2.38912 101.601 2.9792ZM74.7102 22.3476C76.2669 22.3476 77.931 21.6527 78.9508 20.4362C79.9203 19.277 80.3065 17.9882 80.3065 16.5052C80.3065 14.1003 80.3065 11.6931 80.3065 9.28752C80.3065 8.22097 80.3065 7.15497 80.3065 6.08786C80.3065 5.53198 80.3177 5.00366 80.1851 4.4566C79.983 3.57589 79.6057 2.82423 79.0678 2.09573C78.6161 1.48084 77.8185 0.798661 77.0869 0.526232C76.4443 0.287995 75.7597 0.0072937 75.06 0.0072937C74.6072 0.0072937 47.7339 0.0072937 47.7339 0.0072937L47.7456 22.3476C47.7451 22.3476 70.8513 22.3476 74.7102 22.3476ZM53.3845 5.5976L74.6531 5.59926L74.6442 16.797L53.394 16.8063C53.394 16.8069 53.3845 5.66488 53.3845 5.5976Z" fill="#949CA1"/>
<path fill-rule="evenodd" clip-rule="evenodd" d="M0.435547 0.0507507V22.3905H6.10744V0.0507507H0.435547Z" fill="#EE3524"/>
<path fill-rule="evenodd" clip-rule="evenodd" d="M16.5522 0C14.7145 0.0694859 13.0622 0.848721 11.9634 2.32282C11.117 3.45555 10.8792 4.75317 10.8792 6.12745C10.8792 10.751 10.8948 22.3739 10.8948 22.3739H16.5516C16.5516 22.257 16.5516 6.52506 16.5516 5.60796C19.2731 8.06533 30.5267 18.2141 33.4273 20.8292C34.6554 21.9394 36.1925 22.4213 37.8454 22.3535C39.5728 22.2901 41.3001 21.1761 42.1728 19.7395C42.6043 19.0281 42.9872 18.1827 43.0219 17.34C43.0437 16.8934 43.0437 0.0507358 43.0437 0.0507358H37.3629C37.3629 0.0507358 37.3629 13.4477 37.3629 16.7764C34.6431 14.3406 31.9412 11.9113 29.2231 9.47325C26.2716 6.83002 23.3251 4.18184 20.3752 1.53751C19.3201 0.586219 18.003 0 16.5522 0Z" fill="#EE3524"/>
<path d="M1.47549 29.5894C1.47549 29.9953 1.19282 30.324 0.714234 30.324C0.277073 30.324 0 29.9953 0 29.5894C0 29.1813 0.297784 28.8378 0.74446 28.8378C1.18162 28.8378 1.47549 29.1664 1.47549 29.5894ZM0.149452 38.0127V31.4347H1.34115V38.0127H0.149452Z" fill="#949CA1"/>
<path d="M5.63041 33.2143C5.63041 32.5183 5.61362 31.9757 5.58228 31.4347H6.63236L6.7068 32.5183H6.73087C7.05608 31.9106 7.81622 31.2979 8.90492 31.2979C9.81282 31.2979 11.2183 31.8417 11.2183 34.0994V38.0127H10.0278V34.2213C10.0278 33.1558 9.62923 32.2762 8.5075 32.2762C7.72945 32.2762 7.11989 32.8343 6.90439 33.5011C6.85681 33.6455 6.82099 33.8523 6.82099 34.0603V38.0132H5.63153V33.2143H5.63041Z" fill="#949CA1"/>
<path d="M21.1186 28.3629V36.3119C21.1186 36.8926 21.1488 37.5665 21.1746 38.0127H20.12L20.0596 36.8678H20.0221C19.6722 37.6035 18.8813 38.1583 17.8167 38.1583C16.2197 38.1583 14.99 36.816 14.99 34.818C14.9754 32.6314 16.3479 31.2979 17.9365 31.2979C18.9541 31.2979 19.6146 31.7738 19.9135 32.29H19.9392V28.3629H21.1186ZM19.9392 34.1121C19.9392 33.9654 19.9213 33.7575 19.8872 33.6091C19.7131 32.8586 19.0621 32.236 18.1682 32.236C16.9261 32.236 16.1912 33.3207 16.1912 34.7584C16.1912 36.0919 16.8618 37.1948 18.1391 37.1948C18.9446 37.1948 19.6717 36.6489 19.8866 35.7676C19.9208 35.6049 19.9387 35.4466 19.9387 35.2514V34.1121H19.9392Z" fill="#949CA1"/>
<path d="M30.9124 36.2022C30.9124 36.8926 30.9275 37.4971 30.9706 38.0127H29.9099L29.8416 36.9357H29.8181C29.5181 37.4689 28.8156 38.1583 27.6458 38.1583C26.6209 38.1583 25.3883 37.5743 25.3883 35.279V31.4347H26.5705V35.0645C26.5705 36.3119 26.9685 37.1673 28.0443 37.1673C28.8425 37.1673 29.3905 36.6136 29.6144 36.0654C29.6855 35.9083 29.7224 35.6855 29.7224 35.4549V31.4352H30.9124V36.2022Z" fill="#949CA1"/>
<path d="M35.0478 36.8016C35.4055 37.0173 36.0268 37.2649 36.6207 37.2649C37.476 37.2649 37.8868 36.8436 37.8868 36.2849C37.8868 35.7119 37.5521 35.4169 36.68 35.0871C35.4855 34.652 34.9342 34.0123 34.9342 33.2292C34.9342 32.167 35.8029 31.2979 37.1978 31.2979C37.8533 31.2979 38.4488 31.4766 38.7987 31.7049L38.507 32.5795C38.2574 32.4158 37.7805 32.1775 37.1665 32.1775C36.4623 32.1775 36.0766 32.5878 36.0766 33.0803C36.0766 33.6207 36.4623 33.8678 37.3153 34.2058C38.4483 34.625 39.0438 35.1957 39.0438 36.1724C39.0438 37.3487 38.1298 38.1577 36.6 38.1577C35.8813 38.1577 35.2202 37.9691 34.7545 37.6956L35.0478 36.8016Z" fill="#949CA1"/>
<path d="M44.3211 29.858V31.4347H46.0294V32.3435H44.3211V35.8939C44.3211 36.704 44.5545 37.1673 45.2155 37.1673C45.5352 37.1673 45.7311 37.1402 45.9102 37.0884L45.9578 37.9901C45.7316 38.0761 45.3616 38.1583 44.9105 38.1583C44.3468 38.1583 43.8979 37.9697 43.6152 37.6553C43.2906 37.2913 43.1506 36.704 43.1506 35.932V32.3441H42.1409V31.4352H43.1506V30.2082L44.3211 29.858Z" fill="#949CA1"/>
<path d="M49.6744 33.4856C49.6744 32.7158 49.6638 32.049 49.6218 31.4347H50.668L50.7212 32.74H50.757C51.0626 31.8549 51.7892 31.2979 52.5969 31.2979C52.7116 31.2979 52.8068 31.3128 52.921 31.326V32.4494C52.7956 32.4246 52.6736 32.4246 52.5157 32.4246C51.6694 32.4246 51.0805 33.0549 50.907 33.9478C50.8807 34.1126 50.874 34.3139 50.874 34.5014V38.0127H49.6744V33.4856Z" fill="#949CA1"/>
<path d="M57.1913 31.4347L58.6181 35.3198C58.7793 35.7583 58.9439 36.2711 59.0497 36.6632H59.0749C59.2025 36.2711 59.343 35.7682 59.4997 35.2945L60.8 31.4352H62.0605L60.2778 36.1206C59.4157 38.3805 58.8358 39.5188 58.0192 40.2396C57.4197 40.7436 56.8549 40.9482 56.5566 41L56.2571 40.0046C56.5566 39.9142 56.9512 39.7201 57.301 39.4239C57.6246 39.1686 58.0192 38.7009 58.308 38.0893C58.3657 37.9697 58.4076 37.8726 58.4076 37.8092C58.4076 37.7392 58.3741 37.6476 58.308 37.4971L55.8888 31.4352H57.1913V31.4347Z" fill="#949CA1"/>
<path d="M73.3555 36.4366C73.3555 37.004 73.3774 37.5665 73.4496 38.0121H72.3771L72.2864 37.1788H72.2405C71.8745 37.6961 71.1793 38.1577 70.2378 38.1577C68.9106 38.1577 68.2339 37.2241 68.2339 36.2706C68.2339 34.6818 69.6416 33.8115 72.1812 33.8242V33.6897C72.1812 33.1553 72.0323 32.1665 70.6912 32.1775C70.0587 32.1775 69.4222 32.3606 68.9627 32.67L68.6895 31.8665C69.2274 31.5328 70.0402 31.2979 70.858 31.2979C72.8652 31.2979 73.355 32.67 73.355 33.9764V36.4366H73.3555ZM72.2064 34.652C70.905 34.625 69.4228 34.8566 69.4228 36.1344C69.4228 36.929 69.9405 37.2803 70.5356 37.2803C71.4004 37.2803 71.9601 36.7355 72.1448 36.173C72.1918 36.0439 72.2058 35.9082 72.2058 35.7957V34.652H72.2064Z" fill="#949CA1"/>
<path d="M77.4278 36.8016C77.7949 37.0173 78.4185 37.2649 79.0141 37.2649C79.8677 37.2649 80.2746 36.8436 80.2746 36.2849C80.2746 35.7119 79.936 35.4169 79.0712 35.0871C77.8795 34.652 77.3208 34.0123 77.3208 33.2292C77.3208 32.167 78.189 31.2979 79.5839 31.2979C80.2477 31.2979 80.8304 31.4766 81.1887 31.7049L80.9021 32.5795C80.6452 32.4158 80.1705 32.1775 79.5565 32.1775C78.8534 32.1775 78.475 32.5878 78.475 33.0803C78.475 33.6207 78.8534 33.8678 79.707 34.2058C80.8299 34.625 81.4243 35.1957 81.4243 36.1724C81.4243 37.3487 80.5203 38.1577 78.9872 38.1577C78.2657 38.1577 77.6074 37.9691 77.1417 37.6956L77.4278 36.8016Z" fill="#949CA1"/>
<path d="M85.1036 36.8016C85.4674 37.0173 86.0949 37.2649 86.6876 37.2649C87.5502 37.2649 87.956 36.8436 87.956 36.2849C87.956 35.7119 87.6224 35.4169 86.7436 35.0871C85.5553 34.652 84.9933 34.0123 84.9933 33.2292C84.9933 32.167 85.8626 31.2979 87.2703 31.2979C87.9241 31.2979 88.5034 31.4766 88.8622 31.7049L88.5813 32.5795C88.3165 32.4158 87.8435 32.1775 87.23 32.1775C86.5281 32.1775 86.1486 32.5878 86.1486 33.0803C86.1486 33.6207 86.5281 33.8678 87.3896 34.2058C88.5034 34.625 89.1102 35.1957 89.1102 36.1724C89.1102 37.3487 88.1939 38.1577 86.6692 38.1577C85.9443 38.1577 85.286 37.9691 84.8259 37.6956L85.1036 36.8016Z" fill="#949CA1"/>
<path d="M94.2783 29.5894C94.2783 29.9953 93.9906 30.324 93.5204 30.324C93.0799 30.324 92.8022 29.9953 92.8022 29.5894C92.8022 29.1813 93.0939 28.8378 93.5456 28.8378C93.9772 28.8378 94.2783 29.1664 94.2783 29.5894ZM92.9478 38.0127V31.4347H94.1428V38.0127H92.9478Z" fill="#949CA1"/>
<path d="M98.2715 36.8016C98.627 37.0173 99.2567 37.2649 99.8601 37.2649C100.714 37.2649 101.114 36.8436 101.114 36.2849C101.114 35.7119 100.776 35.4169 99.9116 35.0871C98.7132 34.652 98.1534 34.0123 98.1534 33.2292C98.1534 32.167 99.0238 31.2979 100.434 31.2979C101.089 31.2979 101.673 31.4766 102.024 31.7049L101.732 32.5795C101.48 32.4158 101.014 32.1775 100.397 32.1775C99.6955 32.1775 99.3099 32.5878 99.3099 33.0803C99.3099 33.6207 99.6955 33.8678 100.544 34.2058C101.673 34.625 102.271 35.1957 102.271 36.1724C102.271 37.3487 101.354 38.1577 99.8315 38.1577C99.1067 38.1577 98.4439 37.9691 97.9805 37.6956L98.2715 36.8016Z" fill="#949CA1"/>
<path d="M107.547 29.858V31.4347H109.26V32.3435H107.547V35.8939C107.547 36.704 107.783 37.1673 108.443 37.1673C108.768 37.1673 108.96 37.1402 109.132 37.0884L109.183 37.9901C108.96 38.0761 108.589 38.1583 108.13 38.1583C107.573 38.1583 107.124 37.9697 106.842 37.6553C106.518 37.2913 106.375 36.704 106.375 35.932V32.3441H105.362V31.4352H106.375V30.2082L107.547 29.858Z" fill="#949CA1"/>
<path d="M117.516 36.4366C117.516 37.004 117.548 37.5665 117.614 38.0121H116.542L116.448 37.1788H116.409C116.049 37.6961 115.337 38.1577 114.403 38.1577C113.062 38.1577 112.395 37.2241 112.395 36.2706C112.395 34.6818 113.803 33.8115 116.34 33.8242V33.6897C116.34 33.1553 116.187 32.1665 114.847 32.1775C114.22 32.1775 113.58 32.3606 113.127 32.67L112.85 31.8665C113.395 31.5328 114.199 31.2979 115.026 31.2979C117.027 31.2979 117.517 32.67 117.517 33.9764V36.4366H117.516ZM116.365 34.652C115.065 34.625 113.58 34.8566 113.58 36.1344C113.58 36.929 114.098 37.2803 114.689 37.2803C115.568 37.2803 116.125 36.7355 116.308 36.173C116.354 36.0439 116.365 35.9082 116.365 35.7957V34.652Z" fill="#949CA1"/>
<path d="M121.747 33.2143C121.747 32.5183 121.735 31.9757 121.693 31.4347H122.758L122.818 32.5183H122.85C123.176 31.9106 123.932 31.2979 125.023 31.2979C125.93 31.2979 127.339 31.8417 127.339 34.0994V38.0127H126.144V34.2213C126.144 33.1558 125.752 32.2762 124.629 32.2762C123.851 32.2762 123.246 32.8343 123.029 33.5011C122.972 33.6455 122.948 33.8523 122.948 34.0603V38.0132H121.747V33.2143Z" fill="#949CA1"/>
<path d="M136.268 37.7778C135.955 37.9255 135.261 38.1577 134.381 38.1577C132.404 38.1577 131.112 36.8154 131.112 34.8003C131.112 32.783 132.49 31.2974 134.643 31.2974C135.347 31.2974 135.973 31.476 136.295 31.6498L136.026 32.5663C135.731 32.4158 135.29 32.2509 134.643 32.2509C133.135 32.2509 132.324 33.3786 132.324 34.7369C132.324 36.2568 133.298 37.1948 134.604 37.1948C135.284 37.1948 135.729 37.0322 136.068 36.8844L136.268 37.7778Z" fill="#949CA1"/>
<path d="M140.56 34.9393C140.584 36.5529 141.601 37.224 142.812 37.224C143.66 37.224 144.187 37.0735 144.627 36.8849L144.835 37.7391C144.425 37.9255 143.69 38.1582 142.644 38.1582C140.623 38.1582 139.421 36.8159 139.421 34.829C139.421 32.8525 140.583 31.2984 142.492 31.2984C144.653 31.2984 145.207 33.1746 145.207 34.3845C145.207 34.626 145.192 34.8014 145.17 34.9404H140.56V34.9393ZM144.058 34.0823C144.066 33.335 143.744 32.1532 142.406 32.1532C141.189 32.1532 140.663 33.2551 140.573 34.0823H144.058Z" fill="#949CA1"/>
</svg>
